<svg xmlns="http://www.w3.org/2000/svg" viewBox="0 0 196.27 184.55"><defs><style>.cls-1{fill:#fff;stroke:#000;stroke-miterlimit:10;stroke-width:7px;}</style></defs><g id="Capa_2" data-name="Capa 2"><g id="Capa_1-2" data-name="Capa 1"><path class="cls-1" d="M59.3,125.26c-1.14,0-2,0-2.86,0a6.1,6.1,0,0,1-6-5c-1.09-6-2.07-11.93-3.16-17.89-.83-4.54-1.81-9.05-2.64-13.59-1.15-6.32-2.18-12.66-3.32-19-.85-4.66-1.84-9.29-2.69-13.94C37.37,48.92,36.15,42,34.92,35c-.54-3-.93-6.07-1.64-9a3.67,3.67,0,0,0-1.94-2.2c-7.6-3.08-15.27-6-22.85-9.06a10.91,10.91,0,0,1-3.95-3C3,10,3.31,8,4.58,6.1a5.43,5.43,0,0,1,6.09-2.38c2.8.84,5.53,1.95,8.26,3C24.75,9,30.5,11.5,36.4,13.55c4.38,1.52,7,3.94,7.65,8.8.68,5.5,2,10.92,3,16.39,1.2,6.69,2.29,13.4,3.49,20.1,1.15,6.37,2.39,12.72,3.56,19.09.85,4.6,1.61,9.2,2.47,13.79.89,4.83,1.85,9.65,2.78,14.47.4,2.08,1,4.15,1.14,6.25.15,1.61,1.06,1.79,2.26,1.79l11.12-.08c18.6-.05,37.2-.13,55.79-.14,8.23,0,16.46.17,24.69.23,3.15,0,3.07,0,4-3,2.22-7,4.53-14,6.78-21,2.39-7.43,4.73-14.86,7.14-22.28,1.79-5.52,3.66-11,5.46-16.53.43-1.3.69-2.66,1.15-4s0-1.72-1.25-1.75c-3.57-.09-7.14-.22-10.72-.36-13.77-.51-27.55-1-41.33-1.56-14-.57-27.95-1.22-41.92-1.85-4.7-.22-9.4-.48-14.1-.75-3.24-.19-6.09-3-6-5.88a5.7,5.7,0,0,1,6.23-5.41c7.95.29,15.9.72,23.85,1.08,1.32.06,2.64,0,4,0,7.43.35,14.86.73,22.3,1.09q5.53.26,11.09.45c4.82.16,9.65.25,14.47.45,13.42.57,26.83,1.2,40.24,1.79,3.28.14,5.89,1.25,6.91,4.67a3.27,3.27,0,0,1,.11,1.77C188.8,53.15,184.83,65.07,181,77c-2.32,7.13-4.47,14.32-6.75,21.46-1.77,5.53-3.64,11-5.44,16.55-.64,2-1.13,4-1.85,5.89-1.23,3.32-2.84,4.36-6.41,4.36H103c-10.5,0-21,0-31.48,0a2.69,2.69,0,0,0-3,2.12c-1.34,3.9-2.87,7.74-4.33,11.6-.78,2.07-.7,2.19,1.56,2.19q46.67,0,93.32,0a14.47,14.47,0,0,1,3.86.56,4.37,4.37,0,0,1,3.23,4.7,4.79,4.79,0,0,1-4.09,4.06c-1.43.11-2.88-.07-4.32,0a13.11,13.11,0,0,0-2.12.38,8.48,8.48,0,0,0,.77,1.91c2.47,3.41,4.1,7.31,3.64,11.4-.85,7.59-4.74,13.48-12.94,16.12-9.43,3-19-3-21.75-11.86-1.75-5.52-.65-10.74,2.68-15.5a9.45,9.45,0,0,0,.79-2,11,11,0,0,0-2.09-.4q-18-.12-36-.15a7.87,7.87,0,0,0-2,.57,8.25,8.25,0,0,0,.76,1.8c7.81,10.6,1.87,24.43-9.87,27.71-8.71,2.44-19.14-3.67-21.36-12.77A17.52,17.52,0,0,1,61.1,153a7.32,7.32,0,0,0,.67-2,10.13,10.13,0,0,0-1.92-.41c-2.18,0-4.42.42-6.11-1.59a4.43,4.43,0,0,1-.94-4.82c2.09-5.55,4.08-11.15,6.08-16.74A17.43,17.43,0,0,0,59.3,125.26ZM133.74,163c-.06,5.08,3.38,8.69,8.23,8.87a8.57,8.57,0,0,0,9-8.22,8.47,8.47,0,0,0-8.42-8.94C137.49,154.6,133.81,158.07,133.74,163Zm-50.08.32c.06-4.9-3.3-8.54-8-8.6a8.58,8.58,0,1,0-.65,17.14C80.07,172,83.61,168.38,83.66,163.27Z"/></g></g></svg>