<svg xmlns="http://www.w3.org/2000/svg" viewBox="0 0 252.98 252.98"><defs><style>.cls-1{fill:#dc4592;stroke:#fff;stroke-miterlimit:10;stroke-width:14px;}</style></defs><g id="Capa_2" data-name="Capa 2"><g id="Capa_1-2" data-name="Capa 1"><circle class="cls-1" cx="126.49" cy="126.49" r="119.49"/><path d="M90.64,170.89c.58,1.61,1.3,3.17,1.71,4.81a17.31,17.31,0,1,1-19.72-13c1.08-.17,2.13-.42,3.2-.62a6.4,6.4,0,0,1,1.15-.11h26.41l30.9.05,31,0h1.95c-.11-.23-.19-.41-.28-.58-2.51-4.52-5-9-7.52-13.56a5.17,5.17,0,0,1-.57-3.82q3.68-16.5,7.34-33,2.24-10,4.44-20.08a5.72,5.72,0,0,1,1.57-2.88q8.67-8.73,17.32-17.5c1.32-1.34,2.63-2.69,4-4a.92.92,0,0,0,.29-.91,8.33,8.33,0,1,1,16.52-1.87,8.21,8.21,0,0,1-6.88,8.69,18.18,18.18,0,0,1-2.86,0,1,1,0,0,0-.64.22q-9.3,9.36-18.57,18.77a5.25,5.25,0,0,1-.4.42,6.82,6.82,0,0,0-2.42,4.43c-2.92,13.43-5.94,26.85-8.92,40.27-.55,2.49-1.12,5-1.64,7.48a1.65,1.65,0,0,0,.16,1.07q5.22,9.5,10.47,19a4.45,4.45,0,0,1-1.08,5.85,4.58,4.58,0,0,1-3,.94l-9.8,0H164a17.37,17.37,0,0,1,1.42,14.58,17.08,17.08,0,0,1-6.59,8.59,17.36,17.36,0,0,1-24.72-23.16ZM84,179.78a8.42,8.42,0,1,0-8.47,8.39A8.46,8.46,0,0,0,84,179.78Zm65.17-8.48a8.44,8.44,0,1,0,8.42,8.46A8.49,8.49,0,0,0,149.12,171.3Z"/><path d="M53.78,96c.36.87.67,1.63,1,2.38l16.84,39.6c.35.83.72,1.65,1,2.49a.65.65,0,0,0,.73.47h76.34A4.39,4.39,0,0,1,154,144a4.45,4.45,0,0,1-1.6,4.93,4.56,4.56,0,0,1-2.41.85c-.23,0-.46,0-.69,0H70.47a4.59,4.59,0,0,1-4.86-3.21l-22.53-53c-1.18-2.77,0-5.56,2.77-6.32a5.23,5.23,0,0,1,1.31-.17H161.9a4.45,4.45,0,0,1,.27,8.89c-.28,0-.57,0-.86,0H53.78Z"/></g></g></svg>